<?xml version="1.0" encoding="utf-8"?>
<!-- Generator: Adobe Illustrator 19.0.0, SVG Export Plug-In . SVG Version: 6.00 Build 0)  -->
<svg version="1.1" id="Livello_1" xmlns="http://www.w3.org/2000/svg" xmlns:xlink="http://www.w3.org/1999/xlink" x="0px" y="0px"
	 viewBox="0 0 510 488" style="enable-background:new 0 0 510 488;" xml:space="preserve">
<style type="text/css">
	.st0{fill:#FFFFFF;}
</style>
<g>
	<path class="st0" d="M261,63.2c60.6,0,121.1,0,181.7,0c0,125.1,0,250.2,0,375.3c-125.1,0-250.2,0-375.4,0c0-60.5,0-120.9,0-181.4
		c0.1,0.5,0.2,0.9,0.2,1.4c0.4,11.1,1.8,22.1,4.2,32.9c5.9,26.4,16.9,50.5,33.3,72.1c15.2,20,33.6,36.4,55.2,49.1
		c26.2,15.3,54.5,23.7,84.8,25.2c16.3,0.8,32.4-0.4,48.4-3.8c20.6-4.3,40-11.9,58-22.8c23.4-14.2,42.7-32.6,58.1-55.1
		c19.8-29,30.4-61.1,32.2-96.1c0.8-14.4-0.3-28.7-2.8-42.9c-3.6-19.9-10.2-38.7-19.9-56.4c-14.3-25.9-33.6-47.2-57.9-64.2
		c-13.8-9.6-28.7-17.2-44.6-22.8c-16.2-5.7-32.9-9.1-50.1-10C264.7,63.5,262.9,63.3,261,63.2z"/>
	<path d="M261,63.2c1.9,0.1,3.7,0.3,5.6,0.4c17.2,1,33.9,4.4,50.1,10c15.9,5.5,30.8,13.1,44.6,22.8c24.2,16.9,43.6,38.3,57.9,64.2
		c9.8,17.7,16.4,36.5,19.9,56.4c2.5,14.2,3.6,28.5,2.8,42.9c-1.8,35-12.4,67.1-32.2,96.1c-15.4,22.5-34.8,41-58.1,55.1
		c-18,10.9-37.4,18.5-58,22.8c-16,3.4-32.1,4.6-48.4,3.8c-30.3-1.6-58.6-9.9-84.8-25.2c-21.7-12.7-40.1-29.1-55.2-49.1
		c-16.4-21.6-27.4-45.6-33.3-72.1c-2.4-10.8-3.8-21.8-4.2-32.9c0-0.5-0.1-0.9-0.2-1.4c0-4.9,0-9.8,0-14.6c0.1-0.6,0.2-1.3,0.2-1.9
		c0.2-2.7,0.3-5.3,0.6-8c1.3-13.8,4.1-27.4,8.5-40.6c11.7-35.3,32.3-64.4,61.1-87.8c16.3-13.2,34.5-23.3,54.3-30.3
		c16.4-5.8,33.4-9.3,50.8-10.3c1.9-0.1,3.8-0.3,5.7-0.4C252.7,63.2,256.8,63.2,261,63.2z M254.7,74.4
		c-97.3-0.1-174.5,78.5-176.2,172.6C76.8,347.6,158,426.9,254.7,426.8c97.4-0.1,176.2-79.2,176.1-176
		C430.9,151.3,349.9,74.1,254.7,74.4z"/>
	<path class="st0" d="M248.5,63.2c-1.9,0.1-3.8,0.3-5.7,0.4c-17.4,1-34.4,4.5-50.8,10.3c-19.8,7-37.9,17-54.3,30.3
		c-28.8,23.4-49.4,52.5-61.1,87.8c-4.4,13.2-7.1,26.8-8.5,40.6c-0.3,2.7-0.4,5.3-0.6,8c0,0.6-0.1,1.3-0.2,1.9
		c0-59.8,0-119.5,0-179.3C127.7,63.2,188.1,63.2,248.5,63.2z"/>
	<path class="st0" d="M254.7,74.4c95.2-0.3,176.2,76.9,176.2,176.4c0,96.8-78.8,175.9-176.1,176c-96.7,0.1-178-79.2-176.2-179.8
		C80.2,152.9,157.4,74.3,254.7,74.4z M162.8,294.3c0.4,0,0.7,0,1.1,0c11,0,22.1,0.1,33.1,0c3.4,0,6.9-0.3,10.2-1
		c11.4-2.3,21.2-7.7,28.8-16.6c14.1-16.5,17.6-35.4,9.3-55.4c-8.5-20.5-24.5-31.7-46.8-32.8c-11.6-0.6-23.2-0.1-34.8-0.2
		c-0.3,0-0.5,0.1-0.9,0.1C162.8,223.7,162.8,258.9,162.8,294.3z M356,294.3c-0.7-1.6-1.3-3.1-1.9-4.6
		c-14.2-33.4-28.3-66.8-42.5-100.2c-0.2-0.4-0.6-0.8-0.9-1.1c-0.4,0.3-0.9,0.6-1.2,1c-11.4,19.6-21.5,39.9-30,61
		c-3.8,9.5-7.2,19.2-8.6,29.5c-0.4,3.1-0.6,6.2,0.4,9.3c0.9,3,3.2,4.8,5.9,5.9c2.1,0.8,4.3,0.1,6.3-1.2c2.4-1.6,3.7-4,4.9-6.6
		c1.7-3.9,3.3-7.9,5.1-11.7c6.2-13.4,17.2-20,31.5-21.7c1.2-0.1,1.6,0.2,2.1,1.3c2.3,5.8,4.8,11.5,7.2,17.3c2.9,7,5.9,14,8.8,21
		c0.2,0.5,0.3,1,1.1,1C348,294.2,351.9,294.3,356,294.3z"/>
	<path d="M162.8,294.3c0-35.4,0-70.6,0-105.8c0.3,0,0.6-0.1,0.9-0.1c11.6,0,23.2-0.4,34.8,0.2c22.3,1.1,38.4,12.3,46.8,32.8
		c8.3,20,4.8,38.8-9.3,55.4c-7.6,8.8-17.4,14.2-28.8,16.6c-3.3,0.7-6.8,1-10.2,1c-11,0.1-22.1,0-33.1,0
		C163.6,294.3,163.3,294.3,162.8,294.3z M174.5,189.4c0,34.6,0,69,0,103.5c0.3,0,0.6,0.1,0.9,0.1c7.2,0,14.4,0,21.6,0
		c5.9,0,11.5-1.5,16.7-4.4c8.5-4.8,14.6-11.9,18.7-20.6c6.3-13.3,7.4-27.2,4.1-41.4c-2.6-11.1-7.7-20.8-16.5-28.3
		c-6.6-5.7-14.2-8.9-23.1-8.9c-7.2,0-14.4,0-21.6,0C175.2,189.4,174.9,189.4,174.5,189.4z"/>
	<path d="M356,294.3c-4.1,0-8,0-11.9,0c-0.8,0-0.9-0.5-1.1-1c-2.9-7-5.9-14-8.8-21c-2.4-5.7-4.8-11.5-7.2-17.3
		c-0.4-1.1-0.9-1.4-2.1-1.3c-14.3,1.7-25.3,8.3-31.5,21.7c-1.8,3.9-3.4,7.8-5.1,11.7c-1.1,2.5-2.5,5-4.9,6.6c-1.9,1.3-4.1,2-6.3,1.2
		c-2.7-1-5-2.8-5.9-5.9c-0.9-3.1-0.8-6.2-0.4-9.3c1.4-10.3,4.8-19.9,8.6-29.5c8.5-21.1,18.6-41.4,30-61c0.2-0.4,0.8-0.7,1.2-1
		c0.3,0.4,0.7,0.7,0.9,1.1c14.2,33.4,28.3,66.8,42.5,100.2C354.7,291.1,355.3,292.6,356,294.3z M304,201.3c-0.2,0.3-0.3,0.3-0.3,0.4
		c-7.8,15.2-15.6,30.4-22,46.2c-4.1,10-7.8,20-9.5,30.7c-0.6,3.6-0.6,7.1,0.5,10.7c1.3,4.1,7.8,6.3,11.2,2.5
		c1.3-1.4,2.4-3.1,3.2-4.9c1.9-4,3.4-8.2,5.3-12.2c5.6-11.9,14.9-19.1,27.9-21.4c1.9-0.3,3.7-0.6,5.7-1
		C318.6,235.4,311.4,218.4,304,201.3z"/>
	<path class="st0" d="M174.5,189.4c0.4,0,0.7-0.1,0.9-0.1c7.2,0,14.4,0,21.6,0c8.8,0,16.4,3.2,23.1,8.9c8.7,7.5,13.9,17.2,16.5,28.3
		c3.3,14.2,2.2,28.1-4.1,41.4c-4.2,8.7-10.2,15.8-18.7,20.6c-5.2,2.9-10.8,4.4-16.7,4.4c-7.2,0-14.4,0-21.6,0c-0.3,0-0.5,0-0.9-0.1
		C174.5,258.5,174.5,224,174.5,189.4z"/>
	<path class="st0" d="M304,201.3c7.4,17.1,14.6,34.1,22,51.2c-2,0.3-3.8,0.6-5.7,1c-13,2.3-22.3,9.5-27.9,21.4
		c-1.9,4-3.4,8.2-5.3,12.2c-0.8,1.7-1.9,3.4-3.2,4.9c-3.4,3.7-9.9,1.6-11.2-2.5c-1.1-3.5-1.1-7.1-0.5-10.7
		c1.7-10.7,5.5-20.7,9.5-30.7c6.5-15.8,14.2-31.1,22-46.2C303.7,201.6,303.8,201.6,304,201.3z"/>
</g>
</svg>
